<?xml version="1.0" encoding="UTF-8" standalone="no"?>
<!-- Created with Inkscape (http://www.inkscape.org/) -->

<svg
   xmlns:dc="http://purl.org/dc/elements/1.1/"
   xmlns:cc="http://creativecommons.org/ns#"
   xmlns:rdf="http://www.w3.org/1999/02/22-rdf-syntax-ns#"
   xmlns:svg="http://www.w3.org/2000/svg"
   xmlns="http://www.w3.org/2000/svg"
   xmlns:sodipodi="http://sodipodi.sourceforge.net/DTD/sodipodi-0.dtd"
   xmlns:inkscape="http://www.inkscape.org/namespaces/inkscape"
   width="65.200996"
   height="91.800003"
   viewBox="0 0 65.200999 91.800003"
   id="svg12970"
   version="1.1"
   inkscape:version="0.91 r13725"
   sodipodi:docname="player2.svg">
  <defs
     id="defs12972" />
  <sodipodi:namedview
     id="base"
     pagecolor="#ffffff"
     bordercolor="#666666"
     borderopacity="1.0"
     inkscape:pageopacity="0.0"
     inkscape:pageshadow="2"
     inkscape:zoom="0.35"
     inkscape:cx="-1012.3995"
     inkscape:cy="11.614285"
     inkscape:document-units="px"
     inkscape:current-layer="layer1"
     showgrid="false"
     fit-margin-top="0"
     fit-margin-left="0"
     fit-margin-right="0"
     fit-margin-bottom="0"
     units="px"
     inkscape:window-width="2560"
     inkscape:window-height="1404"
     inkscape:window-x="0"
     inkscape:window-y="36"
     inkscape:window-maximized="1" />
  <metadata
     id="metadata12975">
    <rdf:RDF>
      <cc:Work
         rdf:about="">
        <dc:format>image/svg+xml</dc:format>
        <dc:type
           rdf:resource="http://purl.org/dc/dcmitype/StillImage" />
        <dc:title></dc:title>
      </cc:Work>
    </rdf:RDF>
  </metadata>
  <g
     inkscape:label="Layer 1"
     inkscape:groupmode="layer"
     id="layer1"
     transform="translate(-433.11379,-452.17649)">
    <path
       inkscape:connector-curvature="0"
       style="fill:#8db5e7"
       d="m 482.21379,543.97649 -8.35,0 -3.55,-18.3 c -0.3,-1.8 0.017,-3.366 0.95,-4.7 1.1,-1.434 2.55,-2.133 4.35,-2.1 1.867,-0.033 3.45,0.666 4.75,2.1 1.267,1.334 1.884,2.9 1.851,4.7 l 0,18.3 z m -33,-18.3 c -0.034,-1.8 0.583,-3.366 1.85,-4.7 1.3,-1.434 2.883,-2.133 4.75,-2.1 1.8,-0.033 3.25,0.666 4.35,2.1 0.934,1.334 1.25,2.9 0.95,4.7 l -3.55,18.3 -8.35,0 0,-18.3 z"
       id="path65" />
    <path
       inkscape:connector-curvature="0"
       style="fill:#8db5e7"
       d="m 464.71379,460.32649 1,-0.05 1,0.05 0,0.15 c 4.666,0.6 8.732,2.633 12.199,6.1 4.2,4.2 6.301,9.267 6.301,15.2 l 0,40.4 c 0,3.634 -2.101,6.733 -6.301,9.3 -3.467,2.101 -7.533,3.334 -12.199,3.7 l 0,0.101 -1,0 -1,0 0,-0.101 c -4.634,-0.366 -8.7,-1.6 -12.2,-3.7 -4.2,-2.566 -6.3,-5.666 -6.3,-9.3 l 0,-40.4 c 0,-5.933 2.1,-11 6.3,-15.2 3.5,-3.5 7.566,-5.534 12.2,-6.1 l 0,-0.15 z"
       id="path67" />
    <path
       inkscape:connector-curvature="0"
       style="fill:#8db5e7"
       d="m 490.16379,532.07649 c 0.101,-5.467 -2.183,-8.134 -6.85,-8 l 0,-9.2 0.3,0.1 c 7.9,3.101 11.75,8.834 11.55,17.2 -0.033,0.7 -0.283,1.284 -0.75,1.75 -0.5,0.467 -1.1,0.7 -1.8,0.7 -0.7,0 -1.283,-0.25 -1.75,-0.75 -0.467,-0.5 -0.7,-1.1 -0.7,-1.8 z m -42.05,-8 c -4.667,-0.134 -6.95,2.533 -6.85,8 0,0.7 -0.233,1.3 -0.7,1.8 -0.467,0.5 -1.05,0.75 -1.75,0.75 -0.7,0 -1.3,-0.233 -1.8,-0.7 -0.467,-0.466 -0.717,-1.05 -0.75,-1.75 -0.2,-8.366 3.649,-14.1 11.55,-17.2 l 0.3,-0.1 0,9.2 z"
       id="path69" />
    <path
       inkscape:connector-curvature="0"
       style="fill:#4f719d"
       d="m 464.11379,488.67649 c 0.5,-0.533 1.117,-0.8 1.851,-0.8 0.666,0 1.232,0.267 1.699,0.8 0.5,0.467 0.75,1.05 0.75,1.75 0,0.7 -0.25,1.284 -0.75,1.75 -0.467,0.5 -1.033,0.75 -1.699,0.75 -0.733,0 -1.351,-0.25 -1.851,-0.75 -0.467,-0.466 -0.7,-1.05 -0.7,-1.75 0,-0.7 0.233,-1.283 0.7,-1.75 z m -4,7.75 c -0.434,0.534 -1.017,0.8 -1.75,0.8 -0.667,0 -1.267,-0.267 -1.8,-0.8 -0.467,-0.433 -0.7,-1.017 -0.7,-1.75 0,-0.667 0.233,-1.25 0.7,-1.75 0.533,-0.5 1.133,-0.75 1.8,-0.75 0.733,0 1.316,0.25 1.75,0.75 0.533,0.5 0.8,1.083 0.8,1.75 0,0.733 -0.267,1.317 -0.8,1.75 z m 15.85,-1.75 c 0,0.733 -0.268,1.317 -0.801,1.75 -0.5,0.534 -1.066,0.8 -1.699,0.8 -0.733,0 -1.351,-0.267 -1.851,-0.8 -0.5,-0.433 -0.75,-1.017 -0.75,-1.75 0,-0.667 0.25,-1.25 0.75,-1.75 0.5,-0.5 1.117,-0.75 1.851,-0.75 0.633,0 1.199,0.25 1.699,0.75 0.534,0.5 0.801,1.083 0.801,1.75 z m -5.9,9.75 c 0,0.3 -0.117,0.55 -0.35,0.75 -0.2,0.233 -0.45,0.351 -0.75,0.351 l -6.25,0 c -0.301,0 -0.567,-0.117 -0.801,-0.351 -0.166,-0.2 -0.25,-0.45 -0.25,-0.75 0,-0.267 0.084,-0.517 0.25,-0.75 0.233,-0.2 0.5,-0.3 0.801,-0.3 l 6.25,0 c 0.3,0 0.55,0.1 0.75,0.3 0.233,0.233 0.35,0.483 0.35,0.75 z"
       id="path71" />
    <path
       inkscape:connector-curvature="0"
       style="opacity:0.2;fill:#ffffff"
       enable-background="new    "
       d="m 446.26379,465.27649 c 5.366,-5.4 11.85,-8.1 19.45,-8.1 7.6,0 14.116,2.7 19.55,8.1 5.366,5.367 8.05,11.85 8.05,19.45 0,7.633 -2.684,14.15 -8.05,19.55 -5.434,5.366 -11.95,8.05 -19.55,8.05 -7.601,0 -14.084,-2.684 -19.45,-8.05 -5.434,-5.4 -8.15,-11.917 -8.15,-19.55 0,-7.6 2.717,-14.083 8.15,-19.45 z m 30.9,-0.35 c -2.6,0 -4.816,0.934 -6.649,2.8 -1.867,1.833 -2.8,4.05 -2.8,6.65 0,2.6 0.933,4.816 2.8,6.65 1.833,1.833 4.05,2.75 6.649,2.75 2.601,0 4.817,-0.917 6.65,-2.75 1.833,-1.833 2.75,-4.05 2.75,-6.65 0,-2.6 -0.917,-4.816 -2.75,-6.65 -1.833,-1.867 -4.05,-2.8 -6.65,-2.8 z"
       id="path73" />
    <path
       inkscape:connector-curvature="0"
       style="fill:#ffffff"
       d="m 465.71379,457.17649 c -7.601,0 -14.084,2.7 -19.45,8.1 -5.434,5.367 -8.15,11.85 -8.15,19.45 0,7.633 2.717,14.15 8.15,19.55 5.366,5.366 11.85,8.05 19.45,8.05 7.6,0 14.116,-2.684 19.55,-8.05 5.366,-5.4 8.05,-11.917 8.05,-19.55 0,-7.6 -2.684,-14.083 -8.05,-19.45 -5.433,-5.4 -11.95,-8.1 -19.55,-8.1 z m -32.6,27.55 c 0,-9 3.2,-16.667 9.601,-23 6.333,-6.367 14,-9.55 23,-9.55 9,0 16.699,3.184 23.1,9.55 6.333,6.333 9.5,14 9.5,23 0,9.033 -3.167,16.733 -9.5,23.1 -6.4,6.333 -14.1,9.5 -23.1,9.5 -9,0 -16.667,-3.167 -23,-9.5 -6.401,-6.367 -9.601,-14.067 -9.601,-23.1 z"
       id="path75" />
    <path
       inkscape:connector-curvature="0"
       style="opacity:0.30199998;fill:#ffffff"
       enable-background="new    "
       d="m 470.51379,467.72649 c 1.833,-1.867 4.05,-2.8 6.649,-2.8 2.601,0 4.817,0.934 6.65,2.8 1.833,1.833 2.75,4.05 2.75,6.65 0,2.6 -0.917,4.816 -2.75,6.65 -1.833,1.834 -4.05,2.75 -6.65,2.75 -2.6,0 -4.816,-0.917 -6.649,-2.75 -1.867,-1.833 -2.8,-4.05 -2.8,-6.65 0,-2.6 0.933,-4.816 2.8,-6.65 z"
       id="path77" />
    <path
       inkscape:connector-curvature="0"
       style="opacity:0.50199998;fill:#a3c3eb"
       enable-background="new    "
       d="m 453.61379,521.67649 c -0.566,0.567 -1.25,0.851 -2.05,0.851 -0.8,0 -1.483,-0.283 -2.05,-0.851 -0.567,-0.566 -0.851,-1.25 -0.851,-2.05 0,-0.8 0.283,-1.483 0.851,-2.05 0.566,-0.567 1.25,-0.851 2.05,-0.851 0.8,0 1.483,0.283 2.05,0.851 0.566,0.566 0.851,1.25 0.851,2.05 0,0.8 -0.285,1.483 -0.851,2.05 z m 0.8,6.7 c -0.566,0 -1.05,-0.2 -1.449,-0.6 -0.4,-0.4 -0.601,-0.884 -0.601,-1.45 0,-0.567 0.2,-1.05 0.601,-1.45 0.399,-0.4 0.883,-0.6 1.449,-0.6 0.567,0 1.051,0.199 1.45,0.6 0.4,0.4 0.601,0.883 0.601,1.45 0,0.566 -0.2,1.05 -0.601,1.45 -0.4,0.4 -0.883,0.6 -1.45,0.6 z m 11.65,-3.75 c 0.767,0.767 1.15,1.7 1.15,2.8 0,1.101 -0.384,2.034 -1.15,2.8 -0.767,0.768 -1.7,1.15 -2.8,1.15 -1.101,0 -2.033,-0.383 -2.8,-1.15 -0.768,-0.766 -1.15,-1.699 -1.15,-2.8 0,-1.1 0.383,-2.033 1.15,-2.8 0.767,-0.767 1.699,-1.15 2.8,-1.15 1.1,0 2.033,0.383 2.8,1.15 z"
       id="path229" />
  </g>
</svg>
