<?xml version="1.0" encoding="UTF-8" standalone="no"?>
<!-- Created with Inkscape (http://www.inkscape.org/) -->

<svg
   xmlns:dc="http://purl.org/dc/elements/1.1/"
   xmlns:cc="http://creativecommons.org/ns#"
   xmlns:rdf="http://www.w3.org/1999/02/22-rdf-syntax-ns#"
   xmlns:svg="http://www.w3.org/2000/svg"
   xmlns="http://www.w3.org/2000/svg"
   xmlns:sodipodi="http://sodipodi.sourceforge.net/DTD/sodipodi-0.dtd"
   xmlns:inkscape="http://www.inkscape.org/namespaces/inkscape"
   width="65.200996"
   height="91.800003"
   viewBox="0 0 65.200999 91.800003"
   id="svg8435"
   version="1.1"
   inkscape:version="0.91 r13725"
   sodipodi:docname="player1.svg">
  <defs
     id="defs8437" />
  <sodipodi:namedview
     id="base"
     pagecolor="#ffffff"
     bordercolor="#666666"
     borderopacity="1.0"
     inkscape:pageopacity="0.0"
     inkscape:pageshadow="2"
     inkscape:zoom="2.8"
     inkscape:cx="-65.089653"
     inkscape:cy="114.47143"
     inkscape:document-units="px"
     inkscape:current-layer="layer1"
     showgrid="false"
     fit-margin-top="0"
     fit-margin-left="0"
     fit-margin-right="0"
     fit-margin-bottom="0"
     units="px"
     inkscape:window-width="2560"
     inkscape:window-height="1404"
     inkscape:window-x="0"
     inkscape:window-y="36"
     inkscape:window-maximized="1" />
  <metadata
     id="metadata8440">
    <rdf:RDF>
      <cc:Work
         rdf:about="">
        <dc:format>image/svg+xml</dc:format>
        <dc:type
           rdf:resource="http://purl.org/dc/dcmitype/StillImage" />
        <dc:title></dc:title>
      </cc:Work>
    </rdf:RDF>
  </metadata>
  <g
     inkscape:label="Layer 1"
     inkscape:groupmode="layer"
     id="layer1"
     transform="translate(-341.6852,-555.03363)">
    <path
       inkscape:connector-curvature="0"
       style="fill:#6fc4a9"
       d="m 392.7852,646.83363 -8.35,0 -3.55,-18.3 c -0.3,-1.8 0.017,-3.366 0.95,-4.7 1.1,-1.434 2.55,-2.133 4.35,-2.1 1.867,-0.033 3.45,0.667 4.75,2.1 1.267,1.333 1.884,2.9 1.851,4.7 l 0,18.3 z m -37,-18.3 c -0.034,-1.8 0.583,-3.366 1.85,-4.7 1.3,-1.434 2.883,-2.133 4.75,-2.1 1.8,-0.033 3.25,0.667 4.35,2.1 0.934,1.333 1.25,2.9 0.95,4.7 l -3.55,18.3 -8.35,0 0,-18.3 z"
       id="path7" />
    <path
       inkscape:connector-curvature="0"
       style="fill:#6fc4a9"
       d="m 352.7852,584.63363 c 0,-5.933 2.1,-11 6.3,-15.2 4.2,-4.2 9.267,-6.3 15.2,-6.3 5.933,0 11,2.1 15.199,6.3 4.2,4.2 6.301,9.267 6.301,15.2 l 0,40.4 c 0,3.634 -2.101,6.733 -6.301,9.3 -4.199,2.533 -9.267,3.8 -15.199,3.8 -5.934,0 -11,-1.267 -15.2,-3.8 -4.2,-2.567 -6.3,-5.667 -6.3,-9.3 l 0,-40.4 z"
       id="path9" />
    <path
       inkscape:connector-curvature="0"
       style="fill:#347e67"
       d="m 361.8852,592.58363 c 1,-0.967 2.2,-1.45 3.6,-1.45 1.334,0 2.483,0.483 3.45,1.45 1,1 1.5,2.167 1.5,3.5 0,1.333 -0.5,2.466 -1.5,3.4 -0.967,1 -2.116,1.5 -3.45,1.5 -1.399,0 -2.6,-0.5 -3.6,-1.5 -0.934,-0.934 -1.4,-2.066 -1.4,-3.4 0,-1.334 0.466,-2.5 1.4,-3.5 z m 21.3,-1.45 c 1.333,0 2.483,0.483 3.45,1.45 1,1 1.5,2.167 1.5,3.5 0,1.333 -0.5,2.466 -1.5,3.4 -0.967,1 -2.117,1.5 -3.45,1.5 -1.399,0 -2.6,-0.5 -3.6,-1.5 -0.934,-0.934 -1.4,-2.066 -1.4,-3.4 0,-1.334 0.467,-2.5 1.4,-3.5 1,-0.967 2.2,-1.45 3.6,-1.45 z m -2.5,12.1 c 0.233,0.066 0.434,0.233 0.601,0.5 l 0,0.8 c -0.4,0.9 -1.051,1.717 -1.95,2.45 -1.4,1.1 -3.084,1.65 -5.05,1.65 -2,0 -3.7,-0.55 -5.101,-1.65 -1,-0.733 -1.633,-1.583 -1.899,-2.55 -0.067,-0.267 -0.034,-0.517 0.1,-0.75 0.1,-0.267 0.283,-0.434 0.55,-0.5 l 0.851,0.1 0.448,0.55 c 0.2,0.6 0.601,1.133 1.2,1.6 1.033,0.8 2.316,1.2 3.851,1.2 1.466,0 2.732,-0.4 3.8,-1.2 l 1.3,-1.65 c 0.066,-0.267 0.233,-0.45 0.5,-0.55 0.266,-0.133 0.532,-0.133 0.799,0 z"
       id="path11" />
    <path
       inkscape:connector-curvature="0"
       style="fill:#6fc4a9"
       d="m 342.8352,625.03363 c -0.2,-8.366 3.649,-14.1 11.55,-17.2 l 0.3,-0.1 0,9.2 c -4.667,-0.134 -6.95,2.533 -6.85,8 0,0.7 -0.233,1.3 -0.7,1.8 -0.467,0.5 -1.05,0.75 -1.75,0.75 -0.7,0 -1.3,-0.233 -1.8,-0.7 -0.467,-0.467 -0.717,-1.05 -0.75,-1.75 z m 62.15,1.75 c -0.5,0.467 -1.1,0.7 -1.8,0.7 -0.7,0 -1.283,-0.25 -1.75,-0.75 -0.467,-0.5 -0.7,-1.1 -0.7,-1.8 0.101,-5.467 -2.183,-8.134 -6.85,-8 l 0,-9.2 0.3,0.1 c 7.9,3.1 11.75,8.833 11.55,17.2 -0.034,0.7 -0.284,1.283 -0.75,1.75 z"
       id="path13" />
    <path
       inkscape:connector-curvature="0"
       style="opacity:0.2;fill:#ffffff"
       enable-background="new    "
       d="m 374.2852,560.03363 c 7.6,0 14.116,2.7 19.55,8.1 5.366,5.367 8.05,11.85 8.05,19.45 0,7.633 -2.684,14.15 -8.05,19.55 -5.434,5.367 -11.95,8.05 -19.55,8.05 -7.601,0 -14.084,-2.684 -19.45,-8.05 -5.434,-5.4 -8.15,-11.917 -8.15,-19.55 0,-7.6 2.717,-14.083 8.15,-19.45 5.366,-5.4 11.85,-8.1 19.45,-8.1 z m 4.8,10.55 c -1.867,1.833 -2.8,4.05 -2.8,6.65 0,2.6 0.933,4.816 2.8,6.65 1.833,1.833 4.05,2.75 6.649,2.75 2.601,0 4.817,-0.917 6.65,-2.75 1.833,-1.833 2.75,-4.05 2.75,-6.65 0,-2.6 -0.917,-4.816 -2.75,-6.65 -1.833,-1.867 -4.05,-2.8 -6.65,-2.8 -2.599,0 -4.816,0.933 -6.649,2.8 z"
       id="path15" />
    <path
       inkscape:connector-curvature="0"
       style="fill:#ffffff"
       d="m 393.8352,568.13363 c -5.434,-5.4 -11.95,-8.1 -19.55,-8.1 -7.601,0 -14.084,2.7 -19.45,8.1 -5.434,5.367 -8.15,11.85 -8.15,19.45 0,7.633 2.717,14.15 8.15,19.55 5.366,5.367 11.85,8.05 19.45,8.05 7.6,0 14.116,-2.684 19.55,-8.05 5.366,-5.4 8.05,-11.917 8.05,-19.55 0,-7.6 -2.684,-14.083 -8.05,-19.45 z m -52.15,19.45 c 0,-9 3.2,-16.667 9.601,-23 6.333,-6.367 14,-9.55 23,-9.55 9,0 16.699,3.184 23.1,9.55 6.333,6.333 9.5,14 9.5,23 0,9.033 -3.167,16.733 -9.5,23.1 -6.4,6.333 -14.1,9.5 -23.1,9.5 -9,0 -16.667,-3.167 -23,-9.5 -6.401,-6.367 -9.601,-14.067 -9.601,-23.1 z"
       id="path17" />
    <path
       inkscape:connector-curvature="0"
       style="opacity:0.30199998;fill:#ffffff"
       enable-background="new    "
       d="m 376.2852,577.23363 c 0,-2.6 0.933,-4.816 2.8,-6.65 1.833,-1.867 4.05,-2.8 6.649,-2.8 2.601,0 4.817,0.934 6.65,2.8 1.833,1.833 2.75,4.05 2.75,6.65 0,2.6 -0.917,4.816 -2.75,6.65 -1.833,1.834 -4.049,2.75 -6.649,2.75 -2.6,0 -4.816,-0.917 -6.649,-2.75 -1.868,-1.834 -2.801,-4.05 -2.801,-6.65 z"
       id="path19" />
    <path
       inkscape:connector-curvature="0"
       style="opacity:0.50199998;fill:#8bcfba"
       enable-background="new    "
       d="m 390.7352,624.38363 c -0.566,0.567 -1.25,0.85 -2.05,0.85 -0.8,0 -1.483,-0.283 -2.05,-0.85 -0.566,-0.566 -0.85,-1.25 -0.85,-2.05 0,-0.8 0.283,-1.483 0.85,-2.05 0.566,-0.566 1.25,-0.85 2.05,-0.85 0.8,0 1.483,0.283 2.05,0.85 0.567,0.567 0.851,1.25 0.851,2.05 0,0.8 -0.284,1.483 -0.851,2.05 z m -3.45,6.1 c -0.4,0.4 -0.884,0.6 -1.45,0.6 -0.567,0 -1.05,-0.2 -1.45,-0.6 -0.4,-0.4 -0.6,-0.883 -0.6,-1.45 0,-0.566 0.199,-1.05 0.6,-1.45 0.401,-0.4 0.883,-0.6 1.45,-0.6 0.566,0 1.05,0.2 1.45,0.6 0.399,0.4 0.6,0.883 0.6,1.45 0,0.567 -0.2,1.05 -0.6,1.45 z m -10.3,-4.3 c 1.101,0 2.033,0.383 2.801,1.15 0.767,0.767 1.149,1.7 1.149,2.8 0,1.1 -0.383,2.034 -1.149,2.8 -0.768,0.767 -1.7,1.15 -2.801,1.15 -1.1,0 -2.033,-0.383 -2.8,-1.15 -0.767,-0.767 -1.15,-1.7 -1.15,-2.8 0,-1.1 0.383,-2.033 1.149,-2.8 0.766,-0.767 1.701,-1.15 2.801,-1.15 z"
       id="path227" />
  </g>
</svg>
