<?xml version="1.0" encoding="UTF-8" standalone="no"?>
<!-- Created with Inkscape (http://www.inkscape.org/) -->

<svg
   xmlns:dc="http://purl.org/dc/elements/1.1/"
   xmlns:cc="http://creativecommons.org/ns#"
   xmlns:rdf="http://www.w3.org/1999/02/22-rdf-syntax-ns#"
   xmlns:svg="http://www.w3.org/2000/svg"
   xmlns="http://www.w3.org/2000/svg"
   xmlns:sodipodi="http://sodipodi.sourceforge.net/DTD/sodipodi-0.dtd"
   xmlns:inkscape="http://www.inkscape.org/namespaces/inkscape"
   width="18.401171mm"
   height="25.908001mm"
   viewBox="0 0 65.200999 91.800003"
   id="svg17506"
   version="1.1"
   inkscape:version="0.91 r13725"
   sodipodi:docname="player3.svg">
  <defs
     id="defs17508" />
  <sodipodi:namedview
     id="base"
     pagecolor="#ffffff"
     bordercolor="#666666"
     borderopacity="1.0"
     inkscape:pageopacity="0.0"
     inkscape:pageshadow="2"
     inkscape:zoom="0.35"
     inkscape:cx="-960.97092"
     inkscape:cy="123.04286"
     inkscape:document-units="px"
     inkscape:current-layer="layer1"
     showgrid="false"
     fit-margin-top="0"
     fit-margin-left="0"
     fit-margin-right="0"
     fit-margin-bottom="0"
     inkscape:window-width="2560"
     inkscape:window-height="1404"
     inkscape:window-x="0"
     inkscape:window-y="36"
     inkscape:window-maximized="1" />
  <metadata
     id="metadata17511">
    <rdf:RDF>
      <cc:Work
         rdf:about="">
        <dc:format>image/svg+xml</dc:format>
        <dc:type
           rdf:resource="http://purl.org/dc/dcmitype/StillImage" />
        <dc:title></dc:title>
      </cc:Work>
    </rdf:RDF>
  </metadata>
  <g
     inkscape:label="Layer 1"
     inkscape:groupmode="layer"
     id="layer1"
     transform="translate(-381.68521,-563.60506)">
    <path
       inkscape:connector-curvature="0"
       style="fill:#f19cb7"
       d="m 432.78521,637.10506 0,18.3 -8.35,0 -3.55,-18.3 c -0.3,-1.8 0.017,-3.366 0.95,-4.7 1.1,-1.434 2.55,-2.133 4.35,-2.1 1.867,-0.033 3.45,0.666 4.75,2.1 1.266,1.334 1.884,2.9 1.85,4.7 z m -37,0 c -0.034,-1.8 0.583,-3.366 1.85,-4.7 1.3,-1.434 2.883,-2.133 4.75,-2.1 1.8,-0.033 3.25,0.666 4.35,2.1 0.934,1.334 1.25,2.9 0.95,4.7 l -3.55,18.3 -8.35,0 0,-18.3 z"
       id="path137" />
    <path
       inkscape:connector-curvature="0"
       style="fill:#f19cb7"
       d="m 392.78521,603.20506 c 0,-5.934 2.1,-11 6.3,-15.2 4.2,-4.2 9.267,-6.3 15.2,-6.3 5.933,0 11,2.1 15.199,6.3 4.2,4.2 6.301,9.267 6.301,15.2 l 0,30.4 c 0,3.634 -2.101,6.733 -6.301,9.3 -4.199,2.533 -9.267,3.801 -15.199,3.801 -5.934,0 -11,-1.268 -15.2,-3.801 -4.2,-2.566 -6.3,-5.666 -6.3,-9.3 l 0,-30.4 z"
       id="path139" />
    <path
       inkscape:connector-curvature="0"
       style="fill:#f19cb7"
       d="m 445.73521,633.60506 c -0.033,0.7 -0.283,1.284 -0.75,1.75 -0.5,0.467 -1.1,0.7 -1.8,0.7 -0.7,0 -1.283,-0.25 -1.75,-0.75 -0.467,-0.5 -0.7,-1.1 -0.7,-1.8 0.101,-5.467 -2.183,-8.134 -6.85,-8 l 0,-9.2 0.3,0.1 c 7.9,3.1 11.75,8.834 11.55,17.2 z m -58.6,1.7 c -0.467,0.5 -1.05,0.75 -1.75,0.75 -0.7,0 -1.3,-0.233 -1.8,-0.7 -0.467,-0.466 -0.717,-1.05 -0.75,-1.75 -0.2,-8.366 3.649,-14.1 11.55,-17.2 l 0.3,-0.1 0,9.2 c -4.667,-0.134 -6.95,2.533 -6.85,8 0,0.7 -0.233,1.3 -0.7,1.8 z"
       id="path141" />
    <path
       inkscape:connector-curvature="0"
       style="fill:#a55b72"
       d="m 414.58521,594.50506 c 1.333,0 2.5,0.5 3.5,1.5 1.033,1.033 1.55,2.233 1.55,3.6 0,1.4 -0.517,2.567 -1.55,3.5 -1,1.034 -2.167,1.55 -3.5,1.55 -1.467,0 -2.717,-0.516 -3.75,-1.55 -0.967,-0.933 -1.45,-2.1 -1.45,-3.5 0,-1.366 0.483,-2.566 1.45,-3.6 1.033,-1 2.283,-1.5 3.75,-1.5 z m 4.4,19.5 0.7,-1.25 c 0.101,-0.267 0.283,-0.45 0.55,-0.55 0.233,-0.134 0.483,-0.134 0.75,0 l 0.65,0.5 c 0.133,0.3 0.133,0.583 0,0.85 -0.4,0.934 -1.066,1.767 -2,2.5 -1.434,1.166 -3.167,1.75 -5.2,1.75 -2.066,0 -3.8,-0.584 -5.2,-1.75 -1.066,-0.733 -1.717,-1.6 -1.949,-2.6 -0.101,-0.301 -0.067,-0.551 0.1,-0.75 0.1,-0.301 0.283,-0.467 0.55,-0.5 l 0.9,0.05 0.45,0.55 0.75,1.25 0.449,0.45 c 1.101,0.833 2.417,1.25 3.95,1.25 1.533,0 2.851,-0.417 3.95,-1.25 l 0.6,-0.5 z m 2,-1.8 0.05,0 -0.05,0 z"
       id="path143" />
    <path
       inkscape:connector-curvature="0"
       style="fill:#ffffff"
       d="m 418.08521,596.00506 c -1,-1 -2.167,-1.5 -3.5,-1.5 -1.467,0 -2.717,0.5 -3.75,1.5 -0.967,1.033 -1.45,2.233 -1.45,3.6 0,1.4 0.483,2.567 1.45,3.5 1.033,1.034 2.283,1.55 3.75,1.55 1.333,0 2.5,-0.516 3.5,-1.55 1.033,-0.933 1.55,-2.1 1.55,-3.5 0,-1.366 -0.517,-2.567 -1.55,-3.6 z m -3.45,-4 c 2,0 3.75,0.75 5.25,2.25 1.566,1.566 2.35,3.384 2.35,5.45 l -0.1,1.3 c -0.3,1.5 -1.05,2.816 -2.25,3.95 -1.5,1.533 -3.25,2.3 -5.25,2.3 -2.2,0 -4.066,-0.767 -5.6,-2.3 -1.134,-1.134 -1.801,-2.45 -2,-3.95 -0.101,-0.434 -0.15,-0.866 -0.15,-1.3 0,-2.066 0.717,-3.884 2.15,-5.45 1.534,-1.5 3.4,-2.25 5.6,-2.25 z"
       id="path145" />
    <path
       inkscape:connector-curvature="0"
       style="opacity:0.2;fill:#ffffff"
       enable-background="new    "
       d="m 414.28521,568.60506 c 7.6,0 14.116,2.7 19.55,8.101 5.366,5.366 8.05,11.85 8.05,19.449 0,7.634 -2.684,14.15 -8.05,19.551 -5.434,5.366 -11.95,8.05 -19.55,8.05 -7.601,0 -14.084,-2.684 -19.45,-8.05 -5.434,-5.4 -8.15,-11.917 -8.15,-19.551 0,-7.6 2.717,-14.083 8.15,-19.449 5.366,-5.401 11.85,-8.101 19.45,-8.101 z m 4.8,10.55 c -1.867,1.834 -2.8,4.051 -2.8,6.65 0,2.599 0.933,4.816 2.8,6.65 1.833,1.833 4.05,2.75 6.649,2.75 2.601,0 4.817,-0.917 6.65,-2.75 1.833,-1.834 2.75,-4.051 2.75,-6.65 0,-2.599 -0.917,-4.816 -2.75,-6.65 -1.833,-1.866 -4.05,-2.8 -6.65,-2.8 -2.599,0 -4.816,0.933 -6.649,2.8 z"
       id="path147" />
    <path
       inkscape:connector-curvature="0"
       style="fill:#ffffff"
       d="m 433.83521,576.70506 c -5.434,-5.4 -11.95,-8.101 -19.55,-8.101 -7.601,0 -14.084,2.7 -19.45,8.101 -5.434,5.366 -8.15,11.85 -8.15,19.449 0,7.634 2.717,14.15 8.15,19.551 5.366,5.366 11.85,8.05 19.45,8.05 7.6,0 14.116,-2.684 19.55,-8.05 5.366,-5.4 8.05,-11.917 8.05,-19.551 0,-7.599 -2.684,-14.082 -8.05,-19.449 z m -52.15,19.45 c 0,-9 3.2,-16.666 9.601,-23 6.333,-6.366 14,-9.55 23,-9.55 9,0 16.699,3.184 23.1,9.55 6.333,6.334 9.5,14 9.5,23 0,9.033 -3.167,16.734 -9.5,23.101 -6.4,6.333 -14.1,9.5 -23.1,9.5 -9,0 -16.667,-3.167 -23,-9.5 -6.401,-6.367 -9.601,-14.068 -9.601,-23.101 z"
       id="path149" />
    <path
       inkscape:connector-curvature="0"
       style="opacity:0.30199998;fill:#ffffff"
       enable-background="new    "
       d="m 416.28521,585.80506 c 0,-2.6 0.933,-4.816 2.8,-6.65 1.833,-1.866 4.05,-2.8 6.649,-2.8 2.601,0 4.817,0.934 6.65,2.8 1.833,1.834 2.75,4.051 2.75,6.65 0,2.599 -0.917,4.816 -2.75,6.65 -1.833,1.833 -4.05,2.75 -6.65,2.75 -2.6,0 -4.816,-0.917 -6.649,-2.75 -1.867,-1.834 -2.8,-4.05 -2.8,-6.65 z"
       id="path151" />
    <path
       inkscape:connector-curvature="0"
       style="opacity:0.50199998;fill:#f3afc5"
       enable-background="new    "
       d="m 423.03521,633.95506 c 1.066,0.266 1.866,0.866 2.399,1.8 0.566,0.966 0.7,1.983 0.4,3.05 -0.267,1.033 -0.867,1.834 -1.8,2.4 -0.967,0.533 -1.983,0.666 -3.051,0.399 -1.033,-0.3 -1.833,-0.933 -2.399,-1.899 -0.533,-0.934 -0.667,-1.917 -0.4,-2.95 0.3,-1.067 0.934,-1.866 1.9,-2.4 0.934,-0.567 1.917,-0.7 2.951,-0.4 z m -7.45,6.25 c 0.3,0.5 0.383,1.016 0.25,1.55 -0.167,0.566 -0.5,0.983 -1,1.25 l -1.55,0.2 c -0.534,-0.134 -0.95,-0.45 -1.25,-0.95 -0.268,-0.5 -0.334,-1.017 -0.2,-1.55 0.166,-0.533 0.483,-0.95 0.95,-1.25 l 1.6,-0.2 c 0.533,0.134 0.934,0.45 1.2,0.95 z m -6.8,-6.15 c 0.732,0.2 1.3,0.65 1.699,1.35 0.4,0.7 0.517,1.434 0.351,2.2 -0.233,0.767 -0.7,1.351 -1.4,1.75 -0.7,0.4 -1.417,0.5 -2.149,0.3 -0.801,-0.199 -1.4,-0.649 -1.801,-1.35 -0.399,-0.7 -0.483,-1.434 -0.25,-2.2 0.167,-0.767 0.601,-1.35 1.301,-1.75 0.699,-0.4 1.449,-0.5 2.249,-0.3 z"
       id="path235" />
  </g>
</svg>
